    <svg class="auth" xmlns="http://www.w3.org/2000/svg" viewBox="0 0 40 40" fill="none">
      <g clip-path="url(#clip0_143_23)">
        <path d="M10.2739 36.875H4.74211C4.07508 36.875 3.67266 36.5027 3.49219 36.2808C3.18062 35.8975 3.05992 35.3988 3.16125 34.9121C4.78383 27.1183 11.662 21.4265 19.6023 21.2418C19.7345 21.2467 19.8671 21.25 20.0005 21.25C20.135 21.25 20.2687 21.2466 20.4022 21.2416C22.3438 21.2859 24.2404 21.651 26.0456 22.3289C26.8534 22.6324 27.7543 22.2233 28.0577 21.4154C28.361 20.6076 27.952 19.7067 27.1441 19.4034C26.8855 19.3062 26.625 19.2152 26.3633 19.129C28.9493 17.1891 30.6255 14.0991 30.6255 10.625C30.6255 4.76641 25.8591 0 20.0005 0C14.1418 0 9.37547 4.76641 9.37547 10.625C9.37547 14.1023 11.0545 17.1947 13.6445 19.1342C11.2717 19.9153 9.04516 21.13 7.09656 22.7328C3.52375 25.6716 1.03961 29.7708 0.101874 34.2752C-0.192032 35.6866 0.159999 37.1363 1.06773 38.2524C1.97086 39.363 3.31016 40 4.74211 40H10.2739C11.1369 40 11.8364 39.3005 11.8364 38.4375C11.8364 37.5745 11.1369 36.875 10.2739 36.875ZM12.5005 10.625C12.5005 6.48945 15.8649 3.125 20.0005 3.125C24.136 3.125 27.5005 6.48945 27.5005 10.625C27.5005 14.638 24.3322 17.9248 20.3656 18.116C20.244 18.1138 20.1223 18.112 20.0005 18.112C19.8783 18.112 19.7562 18.1138 19.6341 18.1159C15.6681 17.9242 12.5005 14.6377 12.5005 10.625Z" fill="white"/>
        <path d="M38.8039 26.9224C38.135 25.4263 36.6285 24.457 34.962 24.4531H30.0892C30.0857 24.4531 30.0824 24.4531 30.0788 24.4531C28.321 24.4531 26.7874 25.4891 26.1703 27.0943C26.0882 27.3079 25.9878 27.577 25.883 27.8906H15.6528C15.2304 27.8906 14.8261 28.0616 14.5318 28.3647L11.8477 31.1294C11.2565 31.7383 11.2595 32.7077 11.8543 33.313L14.5887 36.0952C14.8825 36.3941 15.284 36.5624 15.7031 36.5624H20.7812C21.6442 36.5624 22.3437 35.8629 22.3437 34.9999C22.3437 34.137 21.6442 33.4374 20.7812 33.4374H16.3582L15.1529 32.211L16.3136 31.0156H27.0551C27.775 31.0156 28.4016 30.5238 28.5728 29.8247C28.6992 29.3085 28.8578 28.8123 29.0871 28.2156C29.2384 27.8222 29.6182 27.5781 30.0825 27.5781C30.0836 27.5781 30.0846 27.5781 30.0856 27.5781H34.9583C35.4002 27.5791 35.7805 27.8166 35.9509 28.1978C36.3703 29.1363 36.8712 30.5891 36.875 32.1811C36.8787 33.7849 36.3784 35.271 35.9578 36.2353C35.7883 36.6242 35.4048 36.875 34.9766 36.875C34.9757 36.875 34.9749 36.875 34.974 36.875H30.0424C29.6101 36.874 29.2052 36.5959 29.0349 36.183C28.8521 35.7399 28.6938 35.2341 28.5507 34.6363C28.3499 33.7971 27.5064 33.2796 26.6675 33.4804C25.8282 33.6813 25.3107 34.5245 25.5116 35.3637C25.6929 36.1214 25.9005 36.7791 26.1461 37.3745C26.8022 38.9654 28.3288 39.9959 30.0388 39.9999H34.9704C34.9738 39.9999 34.9769 39.9999 34.9803 39.9999C36.6483 39.9998 38.1558 39.0132 38.8225 37.4842C39.3625 36.2459 40.005 34.3193 40 32.1737C39.995 30.0339 39.3468 28.137 38.8039 26.9224Z" fill="white"/>
        <path d="M33.6719 33.75C34.5348 33.75 35.2344 33.0504 35.2344 32.1875C35.2344 31.3246 34.5348 30.625 33.6719 30.625C32.8089 30.625 32.1094 31.3246 32.1094 32.1875C32.1094 33.0504 32.8089 33.75 33.6719 33.75Z" fill="white"/>
      </g>
      <defs>
        <clipPath id="clip0_143_23">
          <rect width="40" height="40" fill="white"/>
        </clipPath>
      </defs>
    </svg>    
