<svg class="logo" xmlns="http://www.w3.org/2000/svg" viewBox="0 0 70 70" fill="none">
      <path d="M65.625 65.8984H64.3945V59.0625C64.3945 57.9299 63.4763 57.0117 62.3438 57.0117H41.5625C38.9356 57.0117 36.5812 58.1952 35 60.0554C33.4188 58.1952 31.0644 57.0117 28.4375 57.0117H7.65625C6.52367 57.0117 5.60547 57.9299 5.60547 59.0625V65.8984H4.375C3.24242 65.8984 2.32422 66.8166 2.32422 67.9492C2.32422 69.0818 3.24242 70 4.375 70H65.625C66.7576 70 67.6758 69.0818 67.6758 67.9492C67.6758 66.8166 66.7576 65.8984 65.625 65.8984ZM41.5625 61.1133H60.293V65.8984H37.0508V65.625C37.0508 63.1373 39.0748 61.1133 41.5625 61.1133ZM9.70703 61.1133H28.4375C30.9252 61.1133 32.9492 63.1373 32.9492 65.625V65.8984H9.70703V61.1133Z" fill="white"/>
      <path d="M35 41.2891C46.3835 41.2891 55.6445 32.028 55.6445 20.6445C55.6445 9.26105 46.3835 0 35 0C23.6165 0 14.3555 9.26105 14.3555 20.6445C14.3555 32.028 23.6165 41.2891 35 41.2891ZM18.584 22.6953H25.3379C25.5229 26.9817 26.3469 31.9065 28.2069 35.7276C23.0584 33.3997 19.3063 28.5108 18.584 22.6953ZM35 4.10156C36.0921 4.10156 37.4728 5.74068 38.5175 8.27764C39.6661 11.067 40.3725 14.6737 40.556 18.5938H29.4442C29.6276 14.6737 30.3341 11.067 31.4826 8.27764C32.5272 5.74068 33.9079 4.10156 35 4.10156ZM40.5558 22.6953C40.3724 26.6153 39.6659 30.2221 38.5174 33.0114C37.4728 35.5484 36.0921 37.1875 35 37.1875C33.9079 37.1875 32.5272 35.5484 31.4825 33.0114C30.3339 30.2221 29.6275 26.6153 29.444 22.6953H40.5558ZM41.7931 35.7276C43.6536 31.9054 44.4768 26.9879 44.6621 22.6953H51.416C50.6937 28.5108 46.9416 33.3997 41.7931 35.7276ZM51.416 18.5938H44.6621C44.4771 14.3073 43.6531 9.3826 41.7931 5.56145C46.9416 7.88936 50.6937 12.7783 51.416 18.5938ZM28.2069 5.56145C26.3464 9.38369 25.5232 14.3012 25.3379 18.5938H18.584C19.3063 12.7783 23.0584 7.88936 28.2069 5.56145Z" fill="white"/>
      <path d="M50.8814 40.3035L43.2251 50.1472C42.5296 51.0412 42.6908 52.3297 43.5848 53.025C44.4747 53.7175 45.7643 53.5634 46.4626 52.6653L54.1189 42.8216C54.8143 41.9276 54.6532 40.6391 53.7592 39.9438C52.865 39.248 51.5763 39.4093 50.8814 40.3035Z" fill="white"/>
      <path d="M16.2411 39.9437C15.3471 40.6391 15.1859 41.9275 15.8814 42.8215L23.5376 52.6653C24.2352 53.5622 25.5237 53.7184 26.4154 53.025C27.3094 52.3296 27.4706 51.0412 26.7751 50.1472L19.1189 40.3034C18.4235 39.4094 17.1351 39.2481 16.2411 39.9437Z" fill="white"/>
      <path d="M32.9492 47.0312V51.4062C32.9492 52.5388 33.8674 53.457 35 53.457C36.1326 53.457 37.0508 52.5388 37.0508 51.4062V47.0312C37.0508 45.8987 36.1326 44.9805 35 44.9805C33.8674 44.9805 32.9492 45.8987 32.9492 47.0312Z" fill="white"/>
</svg>
